<svg xmlns="http://www.w3.org/2000/svg" viewBox="0 0 1600 1100" width="1600" height="1100" role="img" aria-label="Alfresco Outdoor Kitchen — placeholder image 2" preserveAspectRatio="xMidYMid slice">
<defs>
<linearGradient id="g242wall" x1="0" y1="0" x2="0" y2="1"><stop offset="0" stop-color="#26282B"/><stop offset="1" stop-color="#15171A"/></linearGradient>
<linearGradient id="g242tim" x1="0" y1="0" x2="1" y2="1"><stop offset="0" stop-color="#B98A5A"/><stop offset="0.55" stop-color="#B98A5A" stop-opacity="0.82"/><stop offset="1" stop-color="#8A5F37"/></linearGradient>
<linearGradient id="g242bench" x1="0" y1="0" x2="1" y2="0"><stop offset="0" stop-color="#E8E6E1"/><stop offset="1" stop-color="#E8E6E1" stop-opacity="0.86"/></linearGradient>
<linearGradient id="g242light" x1="0.2" y1="0" x2="0.8" y2="1"><stop offset="0" stop-color="#FFFFFF" stop-opacity="0.30"/><stop offset="1" stop-color="#FFFFFF" stop-opacity="0"/></linearGradient>
<linearGradient id="g242vig" x1="0" y1="0" x2="0" y2="1"><stop offset="0" stop-color="#000000" stop-opacity="0.18"/><stop offset="0.45" stop-color="#000000" stop-opacity="0"/><stop offset="1" stop-color="#000000" stop-opacity="0.26"/></linearGradient>
</defs>
<rect width="1600" height="1100" fill="url(#g242wall)"/>
<rect y="814" width="1600" height="286" fill="#2E3034"/>
<polygon points="80,0 736,0 480,1100 -96,1100" fill="url(#g242light)"/>
<rect x="832" y="88" width="704" height="286" fill="#1E2023" rx="6"/>
<line x1="1008" y1="88" x2="1008" y2="374" stroke="#000" stroke-opacity="0.16" stroke-width="2"/>
<line x1="1184" y1="88" x2="1184" y2="374" stroke="#000" stroke-opacity="0.16" stroke-width="2"/>
<line x1="1360" y1="88" x2="1360" y2="374" stroke="#000" stroke-opacity="0.16" stroke-width="2"/>
<rect x="892" y="336" width="56" height="6" fill="#C7A15A" fill-opacity="0.85" rx="2"/>
<rect x="1068" y="336" width="56" height="6" fill="#C7A15A" fill-opacity="0.85" rx="2"/>
<rect x="1244" y="336" width="56" height="6" fill="#C7A15A" fill-opacity="0.85" rx="2"/>
<rect x="1420" y="336" width="56" height="6" fill="#C7A15A" fill-opacity="0.85" rx="2"/>
<rect x="832" y="374" width="704" height="176" fill="#E8E6E1" fill-opacity="0.55"/>
<rect x="48" y="66" width="320" height="748" fill="url(#g242tim)"/>
<line x1="48" y1="419" x2="368" y2="413" stroke="#5E3F22" stroke-opacity="0.13" stroke-width="1"/>
<line x1="48" y1="618" x2="368" y2="621" stroke="#5E3F22" stroke-opacity="0.13" stroke-width="1"/>
<line x1="48" y1="601" x2="368" y2="606" stroke="#5E3F22" stroke-opacity="0.13" stroke-width="1"/>
<line x1="48" y1="76" x2="368" y2="73" stroke="#5E3F22" stroke-opacity="0.13" stroke-width="1"/>
<line x1="48" y1="621" x2="368" y2="618" stroke="#5E3F22" stroke-opacity="0.13" stroke-width="1"/>
<line x1="48" y1="696" x2="368" y2="701" stroke="#5E3F22" stroke-opacity="0.13" stroke-width="1"/>
<line x1="48" y1="116" x2="368" y2="119" stroke="#5E3F22" stroke-opacity="0.13" stroke-width="1"/>
<rect x="448" y="572" width="960" height="264" fill="#1E2023"/>
<rect x="416" y="523" width="1024" height="55" fill="url(#g242bench)" rx="6"/>
<line x1="1369" y1="526" x2="1444" y2="559" stroke="#8E8A82" stroke-opacity="0.22" stroke-width="1"/>
<line x1="789" y1="526" x2="837" y2="559" stroke="#8E8A82" stroke-opacity="0.22" stroke-width="1"/>
<line x1="481" y1="526" x2="501" y2="559" stroke="#8E8A82" stroke-opacity="0.22" stroke-width="1"/>
<line x1="1010" y1="526" x2="1080" y2="559" stroke="#8E8A82" stroke-opacity="0.22" stroke-width="1"/>
<line x1="922" y1="526" x2="1002" y2="559" stroke="#8E8A82" stroke-opacity="0.22" stroke-width="1"/>
<line x1="576" y1="0" x2="576" y2="330" stroke="#C7A15A" stroke-opacity="0.55" stroke-width="2"/>
<circle cx="576" cy="363" r="38" fill="#C7A15A" fill-opacity="0.28"/>
<circle cx="576" cy="363" r="17" fill="#F6E3BC" fill-opacity="0.75"/>
<line x1="927" y1="0" x2="927" y2="330" stroke="#C7A15A" stroke-opacity="0.55" stroke-width="2"/>
<circle cx="927" cy="363" r="38" fill="#C7A15A" fill-opacity="0.28"/>
<circle cx="927" cy="363" r="17" fill="#F6E3BC" fill-opacity="0.75"/>
<line x1="1280" y1="0" x2="1280" y2="330" stroke="#C7A15A" stroke-opacity="0.55" stroke-width="2"/>
<circle cx="1280" cy="363" r="38" fill="#C7A15A" fill-opacity="0.28"/>
<circle cx="1280" cy="363" r="17" fill="#F6E3BC" fill-opacity="0.75"/>
<rect width="1600" height="1100" fill="url(#g242vig)"/>
<text x="1552" y="1051" text-anchor="end" font-family="Helvetica, Arial, sans-serif" font-size="30" letter-spacing="5.4" fill="#FFFFFF" fill-opacity="0.42">PLACEHOLDER</text>
</svg>