<svg xmlns="http://www.w3.org/2000/svg" viewBox="0 0 1600 1100" width="1600" height="1100" role="img" aria-label="Hillside Butlers — placeholder image 3" preserveAspectRatio="xMidYMid slice">
<defs>
<linearGradient id="g223wall" x1="0" y1="0" x2="0" y2="1"><stop offset="0" stop-color="#F6F1E9"/><stop offset="1" stop-color="#E8DFD1"/></linearGradient>
<linearGradient id="g223tim" x1="0" y1="0" x2="1" y2="1"><stop offset="0" stop-color="#D2A874"/><stop offset="0.55" stop-color="#D2A874" stop-opacity="0.82"/><stop offset="1" stop-color="#8A5F37"/></linearGradient>
<linearGradient id="g223bench" x1="0" y1="0" x2="1" y2="0"><stop offset="0" stop-color="#F2EDE4"/><stop offset="1" stop-color="#F2EDE4" stop-opacity="0.86"/></linearGradient>
<linearGradient id="g223light" x1="0.2" y1="0" x2="0.8" y2="1"><stop offset="0" stop-color="#FFFFFF" stop-opacity="0.30"/><stop offset="1" stop-color="#FFFFFF" stop-opacity="0"/></linearGradient>
<linearGradient id="g223vig" x1="0" y1="0" x2="0" y2="1"><stop offset="0" stop-color="#000000" stop-opacity="0.18"/><stop offset="0.45" stop-color="#000000" stop-opacity="0"/><stop offset="1" stop-color="#000000" stop-opacity="0.26"/></linearGradient>
</defs>
<rect width="1600" height="1100" fill="url(#g223wall)"/>
<rect y="814" width="1600" height="286" fill="#DCD1BF"/>
<polygon points="80,0 736,0 480,1100 -96,1100" fill="url(#g223light)"/>
<rect x="832" y="88" width="704" height="286" fill="#4A4238" rx="6"/>
<line x1="1066" y1="88" x2="1066" y2="374" stroke="#000" stroke-opacity="0.16" stroke-width="2"/>
<line x1="1301" y1="88" x2="1301" y2="374" stroke="#000" stroke-opacity="0.16" stroke-width="2"/>
<rect x="912" y="336" width="75" height="6" fill="#C7A15A" fill-opacity="0.85" rx="2"/>
<rect x="1147" y="336" width="75" height="6" fill="#C7A15A" fill-opacity="0.85" rx="2"/>
<rect x="1381" y="336" width="75" height="6" fill="#C7A15A" fill-opacity="0.85" rx="2"/>
<rect x="832" y="374" width="704" height="176" fill="#F2EDE4" fill-opacity="0.55"/>
<rect x="48" y="66" width="320" height="748" fill="url(#g223tim)"/>
<line x1="48" y1="416" x2="368" y2="415" stroke="#5E3F22" stroke-opacity="0.13" stroke-width="1"/>
<line x1="48" y1="269" x2="368" y2="269" stroke="#5E3F22" stroke-opacity="0.13" stroke-width="2"/>
<line x1="48" y1="720" x2="368" y2="722" stroke="#5E3F22" stroke-opacity="0.13" stroke-width="2"/>
<line x1="48" y1="198" x2="368" y2="204" stroke="#5E3F22" stroke-opacity="0.13" stroke-width="2"/>
<line x1="48" y1="756" x2="368" y2="750" stroke="#5E3F22" stroke-opacity="0.13" stroke-width="2"/>
<line x1="48" y1="713" x2="368" y2="712" stroke="#5E3F22" stroke-opacity="0.13" stroke-width="2"/>
<line x1="48" y1="105" x2="368" y2="100" stroke="#5E3F22" stroke-opacity="0.13" stroke-width="1"/>
<rect x="448" y="572" width="960" height="264" fill="#4A4238"/>
<rect x="416" y="523" width="1024" height="55" fill="url(#g223bench)" rx="6"/>
<line x1="810" y1="526" x2="875" y2="559" stroke="#8E8A82" stroke-opacity="0.22" stroke-width="1"/>
<line x1="733" y1="526" x2="803" y2="559" stroke="#8E8A82" stroke-opacity="0.22" stroke-width="1"/>
<line x1="817" y1="526" x2="845" y2="559" stroke="#8E8A82" stroke-opacity="0.22" stroke-width="1"/>
<line x1="1219" y1="526" x2="1262" y2="559" stroke="#8E8A82" stroke-opacity="0.22" stroke-width="1"/>
<line x1="1182" y1="526" x2="1252" y2="559" stroke="#8E8A82" stroke-opacity="0.22" stroke-width="1"/>
<line x1="576" y1="0" x2="576" y2="330" stroke="#C7A15A" stroke-opacity="0.55" stroke-width="2"/>
<circle cx="576" cy="363" r="38" fill="#C7A15A" fill-opacity="0.28"/>
<circle cx="576" cy="363" r="17" fill="#F6E3BC" fill-opacity="0.75"/>
<line x1="927" y1="0" x2="927" y2="330" stroke="#C7A15A" stroke-opacity="0.55" stroke-width="2"/>
<circle cx="927" cy="363" r="38" fill="#C7A15A" fill-opacity="0.28"/>
<circle cx="927" cy="363" r="17" fill="#F6E3BC" fill-opacity="0.75"/>
<line x1="1280" y1="0" x2="1280" y2="330" stroke="#C7A15A" stroke-opacity="0.55" stroke-width="2"/>
<circle cx="1280" cy="363" r="38" fill="#C7A15A" fill-opacity="0.28"/>
<circle cx="1280" cy="363" r="17" fill="#F6E3BC" fill-opacity="0.75"/>
<rect width="1600" height="1100" fill="url(#g223vig)"/>
<text x="1552" y="1051" text-anchor="end" font-family="Helvetica, Arial, sans-serif" font-size="30" letter-spacing="5.4" fill="#FFFFFF" fill-opacity="0.42">PLACEHOLDER</text>
</svg>