<svg xmlns="http://www.w3.org/2000/svg" viewBox="0 0 1200 900" width="1200" height="900" role="img" aria-label="Shop Fit Outs — placeholder image" preserveAspectRatio="xMidYMid slice">
<defs>
<linearGradient id="g112wall" x1="0" y1="0" x2="0" y2="1"><stop offset="0" stop-color="#26282B"/><stop offset="1" stop-color="#15171A"/></linearGradient>
<linearGradient id="g112tim" x1="0" y1="0" x2="1" y2="1"><stop offset="0" stop-color="#B98A5A"/><stop offset="0.55" stop-color="#B98A5A" stop-opacity="0.82"/><stop offset="1" stop-color="#8A5F37"/></linearGradient>
<linearGradient id="g112bench" x1="0" y1="0" x2="1" y2="0"><stop offset="0" stop-color="#E8E6E1"/><stop offset="1" stop-color="#E8E6E1" stop-opacity="0.86"/></linearGradient>
<linearGradient id="g112light" x1="0.2" y1="0" x2="0.8" y2="1"><stop offset="0" stop-color="#FFFFFF" stop-opacity="0.30"/><stop offset="1" stop-color="#FFFFFF" stop-opacity="0"/></linearGradient>
<linearGradient id="g112vig" x1="0" y1="0" x2="0" y2="1"><stop offset="0" stop-color="#000000" stop-opacity="0.18"/><stop offset="0.45" stop-color="#000000" stop-opacity="0"/><stop offset="1" stop-color="#000000" stop-opacity="0.26"/></linearGradient>
</defs>
<rect width="1200" height="900" fill="url(#g112wall)"/>
<rect y="666" width="1200" height="234" fill="#2E3034"/>
<polygon points="60,0 552,0 360,900 -72,900" fill="url(#g112light)"/>
<rect x="624" y="72" width="528" height="234" fill="#1E2023" rx="4"/>
<line x1="756" y1="72" x2="756" y2="306" stroke="#000" stroke-opacity="0.16" stroke-width="2"/>
<line x1="888" y1="72" x2="888" y2="306" stroke="#000" stroke-opacity="0.16" stroke-width="2"/>
<line x1="1020" y1="72" x2="1020" y2="306" stroke="#000" stroke-opacity="0.16" stroke-width="2"/>
<rect x="669" y="275" width="42" height="5" fill="#C7A15A" fill-opacity="0.85" rx="2"/>
<rect x="801" y="275" width="42" height="5" fill="#C7A15A" fill-opacity="0.85" rx="2"/>
<rect x="933" y="275" width="42" height="5" fill="#C7A15A" fill-opacity="0.85" rx="2"/>
<rect x="1065" y="275" width="42" height="5" fill="#C7A15A" fill-opacity="0.85" rx="2"/>
<rect x="624" y="306" width="528" height="144" fill="#E8E6E1" fill-opacity="0.55"/>
<rect x="36" y="54" width="240" height="612" fill="url(#g112tim)"/>
<line x1="36" y1="556" x2="276" y2="560" stroke="#5E3F22" stroke-opacity="0.13" stroke-width="2"/>
<line x1="36" y1="370" x2="276" y2="375" stroke="#5E3F22" stroke-opacity="0.13" stroke-width="1"/>
<line x1="36" y1="495" x2="276" y2="501" stroke="#5E3F22" stroke-opacity="0.13" stroke-width="2"/>
<line x1="36" y1="230" x2="276" y2="229" stroke="#5E3F22" stroke-opacity="0.13" stroke-width="1"/>
<line x1="36" y1="602" x2="276" y2="603" stroke="#5E3F22" stroke-opacity="0.13" stroke-width="1"/>
<line x1="36" y1="463" x2="276" y2="466" stroke="#5E3F22" stroke-opacity="0.13" stroke-width="1"/>
<line x1="36" y1="530" x2="276" y2="531" stroke="#5E3F22" stroke-opacity="0.13" stroke-width="1"/>
<rect x="336" y="468" width="720" height="216" fill="#1E2023"/>
<rect x="312" y="428" width="768" height="45" fill="url(#g112bench)" rx="5"/>
<line x1="695" y1="431" x2="739" y2="458" stroke="#8E8A82" stroke-opacity="0.22" stroke-width="1"/>
<line x1="568" y1="431" x2="609" y2="458" stroke="#8E8A82" stroke-opacity="0.22" stroke-width="1"/>
<line x1="799" y1="431" x2="885" y2="458" stroke="#8E8A82" stroke-opacity="0.22" stroke-width="1"/>
<line x1="688" y1="431" x2="760" y2="458" stroke="#8E8A82" stroke-opacity="0.22" stroke-width="1"/>
<line x1="960" y1="431" x2="1031" y2="458" stroke="#8E8A82" stroke-opacity="0.22" stroke-width="1"/>
<line x1="432" y1="0" x2="432" y2="270" stroke="#C7A15A" stroke-opacity="0.55" stroke-width="2"/>
<circle cx="432" cy="297" r="31" fill="#C7A15A" fill-opacity="0.28"/>
<circle cx="432" cy="297" r="14" fill="#F6E3BC" fill-opacity="0.75"/>
<line x1="696" y1="0" x2="696" y2="270" stroke="#C7A15A" stroke-opacity="0.55" stroke-width="2"/>
<circle cx="696" cy="297" r="31" fill="#C7A15A" fill-opacity="0.28"/>
<circle cx="696" cy="297" r="14" fill="#F6E3BC" fill-opacity="0.75"/>
<line x1="960" y1="0" x2="960" y2="270" stroke="#C7A15A" stroke-opacity="0.55" stroke-width="2"/>
<circle cx="960" cy="297" r="31" fill="#C7A15A" fill-opacity="0.28"/>
<circle cx="960" cy="297" r="14" fill="#F6E3BC" fill-opacity="0.75"/>
<rect width="1200" height="900" fill="url(#g112vig)"/>
<text x="1164" y="860" text-anchor="end" font-family="Helvetica, Arial, sans-serif" font-size="25" letter-spacing="4.5" fill="#FFFFFF" fill-opacity="0.42">PLACEHOLDER</text>
</svg>