<svg xmlns="http://www.w3.org/2000/svg" viewBox="0 0 800 800" width="800" height="800" role="img" aria-label="Instagram post 5 — placeholder image" preserveAspectRatio="xMidYMid slice">
<defs>
<linearGradient id="g305wall" x1="0" y1="0" x2="0" y2="1"><stop offset="0" stop-color="#F6F1E9"/><stop offset="1" stop-color="#E8DFD1"/></linearGradient>
<linearGradient id="g305tim" x1="0" y1="0" x2="1" y2="1"><stop offset="0" stop-color="#D2A874"/><stop offset="0.55" stop-color="#D2A874" stop-opacity="0.82"/><stop offset="1" stop-color="#8A5F37"/></linearGradient>
<linearGradient id="g305bench" x1="0" y1="0" x2="1" y2="0"><stop offset="0" stop-color="#F2EDE4"/><stop offset="1" stop-color="#F2EDE4" stop-opacity="0.86"/></linearGradient>
<linearGradient id="g305light" x1="0.2" y1="0" x2="0.8" y2="1"><stop offset="0" stop-color="#FFFFFF" stop-opacity="0.30"/><stop offset="1" stop-color="#FFFFFF" stop-opacity="0"/></linearGradient>
<linearGradient id="g305vig" x1="0" y1="0" x2="0" y2="1"><stop offset="0" stop-color="#000000" stop-opacity="0.18"/><stop offset="0.45" stop-color="#000000" stop-opacity="0"/><stop offset="1" stop-color="#000000" stop-opacity="0.26"/></linearGradient>
</defs>
<rect width="800" height="800" fill="url(#g305wall)"/>
<rect y="592" width="800" height="208" fill="#DCD1BF"/>
<polygon points="40,0 368,0 240,800 -48,800" fill="url(#g305light)"/>
<rect x="416" y="64" width="352" height="208" fill="#4A4238" rx="3"/>
<line x1="533" y1="64" x2="533" y2="272" stroke="#000" stroke-opacity="0.16" stroke-width="2"/>
<line x1="650" y1="64" x2="650" y2="272" stroke="#000" stroke-opacity="0.16" stroke-width="2"/>
<rect x="456" y="244" width="37" height="4" fill="#C7A15A" fill-opacity="0.85" rx="2"/>
<rect x="574" y="244" width="37" height="4" fill="#C7A15A" fill-opacity="0.85" rx="2"/>
<rect x="691" y="244" width="37" height="4" fill="#C7A15A" fill-opacity="0.85" rx="2"/>
<rect x="416" y="272" width="352" height="128" fill="#F2EDE4" fill-opacity="0.55"/>
<rect x="24" y="48" width="160" height="544" fill="url(#g305tim)"/>
<line x1="24" y1="244" x2="184" y2="247" stroke="#5E3F22" stroke-opacity="0.13" stroke-width="2"/>
<line x1="24" y1="458" x2="184" y2="462" stroke="#5E3F22" stroke-opacity="0.13" stroke-width="2"/>
<line x1="24" y1="348" x2="184" y2="350" stroke="#5E3F22" stroke-opacity="0.13" stroke-width="1"/>
<line x1="24" y1="230" x2="184" y2="226" stroke="#5E3F22" stroke-opacity="0.13" stroke-width="1"/>
<line x1="24" y1="369" x2="184" y2="374" stroke="#5E3F22" stroke-opacity="0.13" stroke-width="1"/>
<line x1="24" y1="246" x2="184" y2="240" stroke="#5E3F22" stroke-opacity="0.13" stroke-width="2"/>
<line x1="24" y1="527" x2="184" y2="530" stroke="#5E3F22" stroke-opacity="0.13" stroke-width="1"/>
<rect x="224" y="416" width="480" height="192" fill="#4A4238"/>
<rect x="208" y="380" width="512" height="40" fill="url(#g305bench)" rx="4"/>
<line x1="336" y1="383" x2="389" y2="407" stroke="#8E8A82" stroke-opacity="0.22" stroke-width="1"/>
<line x1="598" y1="383" x2="648" y2="407" stroke="#8E8A82" stroke-opacity="0.22" stroke-width="1"/>
<line x1="360" y1="383" x2="381" y2="407" stroke="#8E8A82" stroke-opacity="0.22" stroke-width="1"/>
<line x1="299" y1="383" x2="335" y2="407" stroke="#8E8A82" stroke-opacity="0.22" stroke-width="1"/>
<line x1="512" y1="383" x2="600" y2="407" stroke="#8E8A82" stroke-opacity="0.22" stroke-width="1"/>
<line x1="288" y1="0" x2="288" y2="240" stroke="#C7A15A" stroke-opacity="0.55" stroke-width="2"/>
<circle cx="288" cy="264" r="28" fill="#C7A15A" fill-opacity="0.28"/>
<circle cx="288" cy="264" r="12" fill="#F6E3BC" fill-opacity="0.75"/>
<line x1="463" y1="0" x2="463" y2="240" stroke="#C7A15A" stroke-opacity="0.55" stroke-width="2"/>
<circle cx="463" cy="264" r="28" fill="#C7A15A" fill-opacity="0.28"/>
<circle cx="463" cy="264" r="12" fill="#F6E3BC" fill-opacity="0.75"/>
<line x1="640" y1="0" x2="640" y2="240" stroke="#C7A15A" stroke-opacity="0.55" stroke-width="2"/>
<circle cx="640" cy="264" r="28" fill="#C7A15A" fill-opacity="0.28"/>
<circle cx="640" cy="264" r="12" fill="#F6E3BC" fill-opacity="0.75"/>
<rect width="800" height="800" fill="url(#g305vig)"/>
<text x="776" y="764" text-anchor="end" font-family="Helvetica, Arial, sans-serif" font-size="22" letter-spacing="4.0" fill="#FFFFFF" fill-opacity="0.42">PLACEHOLDER</text>
</svg>